<svg width="48" height="48" viewBox="0 0 48 48" fill="none" xmlns="http://www.w3.org/2000/svg">
<rect width="48" height="48" rx="15" fill="#06AAF4"/>
<path d="M31.6278 13.212C32.1078 13.212 32.4678 13.368 32.7078 13.68C32.9718 13.968 33.1038 14.364 33.1038 14.868C33.1038 15.42 32.9598 16.044 32.6718 16.74C31.8318 17.508 30.8838 18.528 29.8278 19.8C28.7718 21.072 27.5238 22.656 26.0838 24.552C27.4038 26.712 28.4718 28.344 29.2878 29.448C30.1038 30.528 30.8838 31.272 31.6278 31.68C31.9398 31.848 32.3118 31.992 32.7438 32.112C33.2958 32.28 33.7038 32.448 33.9678 32.616C34.2318 32.784 34.3638 33.036 34.3638 33.372C34.3638 34.044 34.0518 34.548 33.4278 34.884C32.8038 35.196 32.0478 35.352 31.1598 35.352C30.0078 35.352 28.8678 34.716 27.7398 33.444C26.6358 32.172 25.3038 30.276 23.7438 27.756C22.2318 29.748 20.9718 31.368 19.9638 32.616C18.9558 33.84 18.0438 34.836 17.2278 35.604C17.0598 35.748 16.8198 35.868 16.5078 35.964C16.1958 36.036 15.9318 36.072 15.7158 36.072C15.1878 36.072 14.7318 35.856 14.3478 35.424C13.9878 34.992 13.7958 34.548 13.7718 34.092C13.7718 34.02 13.9038 33.78 14.1678 33.372C14.4318 32.964 14.8398 32.496 15.3918 31.968C15.9918 31.512 16.7718 30.696 17.7318 29.52C18.7158 28.344 20.0358 26.676 21.6918 24.516L20.6478 22.86C19.7358 21.42 19.0638 20.388 18.6318 19.764C18.1998 19.14 17.7918 18.672 17.4078 18.36C17.0238 18.024 16.6158 17.856 16.1838 17.856C16.0398 17.856 15.8118 17.904 15.4998 18C15.2118 18.072 14.9718 18.108 14.7798 18.108C14.5158 18.108 14.2758 18.06 14.0598 17.964C13.4598 17.7 13.1598 17.304 13.1598 16.776C13.1598 16.536 13.2078 16.332 13.3038 16.164C13.4958 15.732 13.8918 15.336 14.4918 14.976C15.1158 14.592 15.9558 14.4 17.0118 14.4C17.9958 14.4 18.8478 14.652 19.5678 15.156C20.2878 15.66 20.9478 16.344 21.5478 17.208C22.1718 18.072 23.0238 19.428 24.1038 21.276C26.4798 18.06 28.1598 15.9 29.1438 14.796C29.7198 14.124 30.1758 13.692 30.5118 13.5C30.8478 13.308 31.2198 13.212 31.6278 13.212Z" fill="#FEFFEB"/>
</svg>
